<svg xmlns="http://www.w3.org/2000/svg" width="704" height="708" viewBox="0 0 704 708" version="1.1"><path d="M 326.894 169.250 C 326.836 169.938, 326.724 177.586, 326.644 186.247 L 326.500 201.993 350.250 201.997 L 374 202 374 185 L 374 168 350.500 168 C 332.423 168, 326.976 168.288, 326.894 169.250 M 503.750 409.706 C 504.988 409.944, 507.012 409.944, 508.250 409.706 C 509.488 409.467, 508.475 409.272, 506 409.272 C 503.525 409.272, 502.512 409.467, 503.750 409.706 M 445.728 452.722 C 447.503 452.943, 450.653 452.946, 452.728 452.730 C 454.802 452.513, 453.350 452.333, 449.500 452.328 C 445.650 452.324, 443.952 452.501, 445.728 452.722 M 440.750 470.723 C 442.538 470.945, 445.462 470.945, 447.250 470.723 C 449.038 470.502, 447.575 470.320, 444 470.320 C 440.425 470.320, 438.962 470.502, 440.750 470.723 M 463.750 470.706 C 464.988 470.944, 467.012 470.944, 468.250 470.706 C 469.488 470.467, 468.475 470.272, 466 470.272 C 463.525 470.272, 462.512 470.467, 463.750 470.706 M 607.750 470.706 C 608.987 470.944, 611.013 470.944, 612.250 470.706 C 613.487 470.467, 612.475 470.272, 610 470.272 C 607.525 470.272, 606.513 470.467, 607.750 470.706 M 345.750 671.732 C 348.087 671.943, 351.913 671.943, 354.250 671.732 C 356.587 671.522, 354.675 671.349, 350 671.349 C 345.325 671.349, 343.413 671.522, 345.750 671.732" stroke="none" fill="#fdfa6a" fill-rule="evenodd"/><path d="M 323.500 24.605 C 321.850 24.835, 314.875 25.731, 308 26.595 C 255.135 33.242, 199.847 56.450, 155.102 90.776 C 130.962 109.296, 107.604 133.157, 89.231 158.066 C 51.307 209.480, 30.790 262.831, 24.926 325.276 C 23.232 343.315, 24.213 378.438, 26.937 397.264 C 36.539 463.628, 64.248 523.053, 109.289 573.873 C 152.846 623.019, 218.555 661.875, 282 676.003 C 338.341 688.549, 402.472 685.355, 454.078 667.433 C 508.422 648.560, 559.139 614.449, 597.027 571.291 C 630.396 533.280, 653.666 491.100, 667.527 443.500 C 694.082 352.308, 680.007 256.340, 628.515 177.500 C 603.620 139.383, 577.020 111.602, 540.208 85.274 C 501.173 57.356, 458.964 38.530, 416.500 30.098 C 392.920 25.416, 386.184 24.791, 356 24.485 C 339.775 24.320, 325.150 24.374, 323.500 24.605 M 320.008 37.513 C 260.129 44.370, 204.139 67.557, 157.839 104.670 C 108.068 144.566, 69.620 199.772, 50.705 258.500 C 38.231 297.227, 33.613 339.450, 37.514 379.110 C 41.851 423.211, 51.576 457.433, 70.481 495.123 C 85.991 526.043, 104.985 552.043, 131.452 578.584 C 175.209 622.461, 232.245 653.426, 291.586 665.521 C 330.093 673.369, 375.661 673.313, 413.382 665.372 C 461.731 655.193, 504.799 634.596, 547 601.472 C 605.759 555.350, 648.331 485.552, 662.349 412.355 C 667.108 387.504, 667.501 382.809, 667.484 351 C 667.465 316.425, 666.626 308.688, 659.924 281.251 C 649.767 239.676, 631.926 202.036, 605.420 166.265 C 583.530 136.722, 559.603 113.446, 530 92.894 C 488.353 63.981, 445.095 46.703, 394.947 38.954 C 377.059 36.189, 338.108 35.441, 320.008 37.513 M 330.500 58 C 253.311 63.446, 175.381 104.985, 125.149 167.458 C 97.937 201.301, 77.832 240.406, 67.944 278.726 C 60.661 306.949, 57.793 338.455, 59.878 367.316 C 60.556 376.695, 61.294 384.666, 61.518 385.029 C 61.742 385.392, 68.791 385.999, 77.182 386.378 C 95.014 387.182, 115.718 389.718, 139.500 394.011 C 164.932 398.601, 162.462 397.334, 170 409.657 C 182.294 429.754, 185.606 435.006, 186.632 436.032 C 187.197 436.597, 197.523 439.287, 209.580 442.010 C 221.636 444.734, 232.850 447.333, 234.500 447.787 C 237.008 448.477, 239.178 451.309, 247.731 465.056 C 253.358 474.100, 260.586 485.556, 263.794 490.513 L 269.625 499.526 281.814 502.455 C 288.519 504.066, 294.382 505.635, 294.843 505.942 C 296.048 506.743, 311.974 534.359, 311.503 534.831 C 311.286 535.047, 305.122 534.710, 297.805 534.083 C 260.509 530.884, 221.737 539.003, 185.469 557.607 C 179.436 560.701, 171.398 565.283, 167.606 567.789 L 160.713 572.344 165.106 576.142 C 167.523 578.231, 169.798 579.954, 170.163 579.970 C 170.527 579.987, 173.227 578.404, 176.163 576.453 C 185.110 570.506, 208.863 559.340, 220.500 555.611 C 245.696 547.534, 263.177 544.643, 287 544.612 C 310.568 544.582, 325.969 547.669, 340.494 555.336 C 348.709 559.672, 358.949 569.980, 362.514 577.500 C 366.389 585.678, 367.199 598.501, 364.259 605.147 C 358.060 619.162, 343.160 625.679, 331.217 619.599 C 325.560 616.720, 322.625 613.740, 320.548 608.768 C 317.697 601.947, 318.703 596.686, 324.012 590.639 C 325.742 588.669, 327.006 586.268, 326.820 585.303 C 326.389 583.067, 322.438 581.073, 319.803 581.762 C 316.085 582.734, 311.431 588.500, 309.558 594.456 C 303.976 612.200, 317.868 631.204, 338.163 633.589 C 353.457 635.387, 370.111 623.746, 374.667 608.074 C 376.649 601.255, 376.032 587.511, 373.452 581 C 371.106 575.080, 364.280 564.482, 359.676 559.610 C 357.654 557.471, 356 555.537, 356 555.313 C 356 555.089, 359.938 556.950, 364.750 559.449 C 375.671 565.119, 384.108 571.441, 396.682 583.379 L 406.500 592.700 421 595.386 C 448.270 600.439, 444.627 598.720, 456.565 612.165 C 462.344 618.674, 467.543 624, 468.118 624 C 469.526 624, 495.697 609.471, 504.750 603.664 C 508.738 601.106, 512 598.508, 512 597.891 C 512 596.533, 505.371 597.191, 489.252 600.151 C 483.066 601.287, 477.378 601.975, 476.613 601.682 C 474.333 600.807, 462.768 586.823, 463.669 586.032 C 465.029 584.837, 478.396 580.203, 487.249 577.856 C 493.472 576.207, 498.450 575.658, 507.500 575.625 C 518.165 575.586, 520.368 575.891, 527.305 578.370 C 536.037 581.490, 535.440 581.626, 543.469 574.686 L 547.438 571.255 542.381 568.693 C 523.194 558.970, 503.984 558.105, 475.101 565.664 C 466.510 567.913, 458.133 569.415, 452.359 569.742 C 440.665 570.406, 436.404 569.143, 404.558 555.577 C 391.326 549.941, 377.213 544.049, 373.195 542.485 C 366.995 540.071, 366.163 539.479, 367.695 538.570 C 368.752 537.943, 375.092 537.523, 383 537.556 C 397.443 537.617, 400.747 538.418, 419.953 546.521 C 436.920 553.679, 451.542 553.443, 477.265 545.596 C 506.085 536.804, 515.051 537.110, 545 547.908 C 553.831 551.093, 563.304 551.976, 568.291 550.080 C 570.335 549.302, 579.973 538.528, 579.991 537 C 579.994 536.725, 574.485 536.475, 567.749 536.444 C 555.616 536.388, 555.353 536.337, 540 531.055 C 525.612 526.105, 523.669 525.688, 512.911 525.231 C 499.122 524.645, 492.459 525.671, 475.331 531.014 C 455.320 537.257, 441.229 538.346, 429 534.596 C 426.525 533.837, 419.834 531.349, 414.131 529.068 C 400.071 523.445, 393.393 522.032, 380.793 522.015 C 371.793 522.002, 367.909 522.558, 356.430 525.500 C 348.919 527.425, 341.042 529, 338.924 529 C 335.333 529, 334.797 528.592, 330.948 522.923 C 328.678 519.581, 326.974 516.697, 327.160 516.515 C 327.347 516.333, 329.975 515.515, 333 514.697 C 336.025 513.879, 344.068 511.582, 350.873 509.593 C 373.952 502.845, 389.518 503.087, 411.695 510.535 C 432.582 517.551, 441.472 517.982, 467.500 513.241 C 480.823 510.814, 484.904 510.509, 504 510.510 C 523.977 510.510, 526.244 510.699, 536 513.170 C 552.259 517.288, 561.821 518.369, 575.437 517.630 C 594.537 516.594, 594.027 516.773, 598.833 509.410 C 601.125 505.900, 603 502.832, 603 502.592 C 603 502.352, 589.612 501.967, 573.250 501.735 C 545.563 501.342, 542.911 501.146, 535 498.907 C 527.070 496.661, 524.858 496.500, 502 496.500 C 481.833 496.500, 475.554 496.854, 466.500 498.500 C 458.695 499.919, 451.289 500.491, 441 500.468 L 426.500 500.435 412 495.597 C 398.704 491.161, 396.496 490.717, 385.402 490.250 C 371.919 489.683, 365 490.602, 349.080 495.072 C 338.071 498.164, 329.509 498.769, 322.500 496.952 C 317.548 495.668, 311 492.902, 311 492.095 C 311 491.401, 344.081 480.591, 354.500 477.879 C 364.656 475.236, 380.291 473.737, 389.500 474.523 C 393.900 474.899, 403.420 476.725, 410.655 478.582 C 417.890 480.439, 427.877 482.420, 432.849 482.983 C 443.045 484.138, 610.849 484.343, 612.636 483.203 C 613.861 482.421, 619 472.631, 619 471.079 C 619 470.436, 585.965 470.111, 524.250 470.146 L 429.500 470.201 415.474 465.679 C 397.810 459.984, 385.543 458.302, 371.186 459.604 C 365.513 460.118, 360.676 460.343, 360.436 460.103 C 360.196 459.863, 360 456.388, 360 452.380 C 360 443.935, 358.924 440.977, 355.010 438.665 C 350.888 436.230, 347.467 436.611, 343.766 439.916 C 340.521 442.814, 340.498 442.900, 340.159 453.416 C 339.928 460.575, 339.443 464.001, 338.659 464.002 C 338.022 464.003, 329.850 466.521, 320.500 469.597 C 302.552 475.501, 295.746 476.698, 286.618 475.558 L 281.017 474.858 273.975 465.759 L 266.933 456.661 277.717 452.724 C 283.648 450.559, 288.812 448.498, 289.193 448.144 C 289.783 447.596, 292.486 416.627, 294.530 387 C 295.164 377.808, 300.774 314.740, 301.468 309 C 301.701 307.075, 302.686 295.488, 303.656 283.250 L 305.421 261 350.211 261 C 374.845 261, 395.004 261.337, 395.008 261.750 C 395.013 262.163, 395.449 266.325, 395.977 271 C 397.110 281.036, 407.384 406.140, 409.034 430 C 410.011 444.129, 410.450 446.738, 412.087 448.159 C 416.276 451.797, 424.666 452.060, 527.399 451.776 L 627.298 451.500 629.636 445.250 L 631.973 439 538.421 439 C 474.883 439, 444.238 438.662, 442.903 437.948 C 440.544 436.686, 435 429.251, 435 427.350 C 435 426.226, 451.773 426, 535.346 426 L 635.692 426 637.371 418.358 C 638.294 414.155, 638.776 410.443, 638.441 410.108 C 638.107 409.774, 603.417 409.500, 561.352 409.500 L 484.871 409.500 485.516 406.062 C 486.426 401.211, 491.171 392.252, 495.464 387.278 C 497.785 384.589, 501.868 381.692, 506.709 379.299 C 513.727 375.831, 514.982 375.541, 523.069 375.521 L 531.828 375.500 533 371.500 C 534.864 365.143, 538.502 359.656, 544.467 354.204 C 556.404 343.294, 573.868 341.099, 588.130 348.714 C 597.651 353.799, 607.063 366.571, 608.538 376.408 L 609.206 380.857 614.697 380.857 C 624.611 380.857, 635.008 387.881, 638.224 396.750 C 638.872 398.538, 639.708 400, 640.082 400 C 640.456 400, 641.601 394.938, 642.626 388.750 C 645.448 371.721, 645.199 326.053, 642.176 306.438 C 635.924 265.861, 617.718 221.529, 592.716 186 C 549.324 124.338, 484.515 80.401, 413 64.163 C 387.848 58.452, 356.879 56.139, 330.500 58 M 360.173 74.750 C 359.679 75.713, 359.006 79.524, 358.678 83.219 C 358.208 88.505, 358.408 90.265, 359.612 91.469 C 362.727 94.584, 364.401 92.749, 365.908 84.566 C 367.319 76.901, 367.297 76.439, 365.429 74.571 C 363.365 72.508, 361.287 72.579, 360.173 74.750 M 335.340 75.556 C 334.663 77.322, 335.491 84.396, 337.056 90.208 C 337.986 93.663, 338.426 94.086, 340.805 93.811 C 343.320 93.521, 343.487 93.199, 343.310 89 C 343.205 86.525, 342.835 82.138, 342.488 79.250 C 341.885 74.242, 341.720 74, 338.897 74 C 337.142 74, 335.694 74.633, 335.340 75.556 M 309.250 76.662 C 307.100 77.530, 307.842 80.354, 312.981 90.863 C 318.036 101.200, 319.879 103.175, 322.465 101.029 C 323.699 100.005, 323.429 98.530, 320.566 90.667 C 315.703 77.312, 314.979 75.989, 312.589 76.079 C 311.440 76.122, 309.938 76.385, 309.250 76.662 M 385.410 79.174 C 382.654 84.504, 377.865 99.207, 378.418 100.646 C 379.070 102.346, 382.423 102.411, 383.765 100.750 C 384.321 100.063, 386.914 94.815, 389.528 89.089 C 394.036 79.212, 394.186 78.609, 392.449 77.339 C 389.485 75.172, 387.167 75.776, 385.410 79.174 M 283.079 83.265 C 281.747 83.944, 280.506 84.961, 280.320 85.526 C 279.947 86.661, 303.093 114.913, 305.502 116.261 C 307.297 117.266, 309 116.423, 309 114.530 C 309 112.901, 292.883 88.640, 289.218 84.750 C 286.250 81.602, 286.310 81.616, 283.079 83.265 M 412.390 84.805 C 407.978 90.441, 398.251 104.759, 395.451 109.740 C 393.131 113.867, 392.786 115.186, 393.770 116.170 C 394.754 117.154, 395.940 116.495, 399.548 112.954 C 405.190 107.419, 420.380 88.460, 420.838 86.383 C 421.218 84.657, 418.284 82.051, 416 82.087 C 415.175 82.100, 413.551 83.323, 412.390 84.805 M 253.026 91.946 C 250.553 93.846, 250.552 93.848, 252.526 96.033 C 255.264 99.064, 279.188 117.698, 282.645 119.491 C 285.041 120.734, 285.680 120.748, 286.844 119.584 C 287.742 118.686, 287.912 117.666, 287.335 116.635 C 285.799 113.890, 258.568 90.002, 257 90.023 C 256.175 90.035, 254.387 90.900, 253.026 91.946 M 428 103.910 C 414.263 117.080, 413.590 117.905, 415.201 119.571 C 416.822 121.247, 417.093 121.204, 420.931 118.665 C 425.903 115.374, 449.685 96.318, 450.534 94.944 C 451.361 93.607, 447.016 90.074, 444.500 90.038 C 443.268 90.020, 436.931 95.348, 428 103.910 M 105 102.500 C 102.571 104.975, 100.809 107, 101.084 107 C 101.359 107, 103.571 104.975, 106 102.500 C 108.429 100.025, 110.191 98, 109.916 98 C 109.641 98, 107.429 100.025, 105 102.500 M 226.766 103.939 C 222.721 107.579, 220.725 105.978, 249.927 122.514 C 262.342 129.544, 274.643 136.630, 277.262 138.260 C 281.150 140.680, 282.298 140.998, 283.512 139.990 C 287.020 137.079, 284.970 135.008, 268.183 124.500 C 262.032 120.650, 251.279 113.787, 244.288 109.250 C 237.296 104.713, 231.229 101, 230.804 101 C 230.379 101, 228.562 102.323, 226.766 103.939 M 463 105.895 C 458.875 108.533, 447.725 115.598, 438.222 121.596 C 415.979 135.633, 413.820 137.630, 418.060 140.246 C 419.452 141.105, 426.670 137.253, 464.639 115.387 C 478.648 107.319, 478.949 106.976, 474.952 103.613 C 473.244 102.176, 471.544 101.022, 471.173 101.049 C 470.803 101.077, 467.125 103.257, 463 105.895 M 344.174 117.314 C 341.631 120.021, 341.270 125.536, 343.477 127.974 C 344.813 129.451, 343.744 130.466, 332.227 138.658 C 325.227 143.637, 316.575 149.649, 313 152.018 C 309.425 154.388, 304.754 157.686, 302.621 159.349 L 298.742 162.373 300.982 164.186 C 302.217 165.186, 304.854 166.006, 306.861 166.014 C 315.498 166.046, 315.081 165.079, 314.773 184.373 L 314.500 201.500 308.750 201.800 L 303 202.100 303.014 205.800 C 303.021 207.835, 303.299 210.512, 303.630 211.750 L 304.233 214 350.528 214 L 396.822 214 397.161 207.998 L 397.500 201.996 391.750 201.998 L 386 202 386 184 L 386 166 391.750 165.968 C 397.732 165.935, 401.649 164.119, 400.745 161.798 C 400.467 161.084, 393.998 156.265, 386.370 151.090 C 371.331 140.886, 356 130.031, 356 129.586 C 356 129.432, 356.692 127.921, 357.537 126.226 C 360.497 120.293, 356.921 115, 349.952 115 C 347.478 115, 345.667 115.726, 344.174 117.314 M 200.417 119.491 C 196.656 122.843, 196.580 123.032, 198.500 124.240 C 203.007 127.074, 268.629 155, 270.782 155 C 272.464 155, 274.062 152.324, 273.404 150.610 C 272.834 149.126, 207.672 116, 205.321 116 C 204.778 116, 202.571 117.571, 200.417 119.491 M 483.500 122.046 C 476.900 125.296, 463.130 132.047, 452.900 137.047 C 442.670 142.048, 432.883 147.001, 431.150 148.055 C 427.779 150.105, 426.908 153.644, 429.528 154.649 C 431.017 155.220, 447.419 148.811, 483 133.753 C 503.698 124.994, 505 124.334, 505 122.601 C 505 121.218, 498.101 115.949, 496.446 116.068 C 495.926 116.106, 490.100 118.796, 483.500 122.046 M 175.020 139.630 C 172.300 142.728, 172.036 143.464, 173.221 144.650 C 174.740 146.169, 211.849 155.961, 216.179 155.985 C 218.756 155.999, 222 153.779, 222 152 C 222 149.858, 218.158 147.832, 208.709 144.993 C 203.094 143.305, 194.666 140.592, 189.981 138.962 C 185.295 137.333, 180.729 136, 179.834 136 C 178.939 136, 176.773 137.634, 175.020 139.630 M 516.500 137.623 C 514.300 138.438, 505.750 141.155, 497.500 143.661 C 489.250 146.166, 481.879 148.805, 481.120 149.524 C 479.422 151.133, 480.336 155.531, 482.546 156.379 C 483.886 156.894, 517.198 148.996, 526.750 145.899 C 530.677 144.625, 530.822 143.130, 527.411 139.077 C 524.539 135.663, 522.517 135.394, 516.500 137.623 M 195.051 158.949 C 192.540 161.460, 192.381 165.611, 194.750 166.832 C 200.959 170.033, 278.547 179.755, 284.694 178.102 C 287.391 177.377, 287.420 177.305, 285.437 176.239 C 281.824 174.297, 264.348 170.271, 234.500 164.505 C 205.040 158.815, 201.819 158.170, 198.801 157.356 C 197.867 157.104, 196.179 157.821, 195.051 158.949 M 481 161.625 C 445.445 168.836, 421.695 174.110, 418.178 175.575 C 412.477 177.949, 415.257 179.268, 424.367 178.513 C 438.770 177.319, 478.889 172.083, 493.404 169.504 C 507.350 167.026, 510 165.877, 510 162.309 C 510 160.355, 506.252 156.981, 504.250 157.132 C 503.288 157.205, 492.825 159.227, 481 161.625 M 149.157 163.625 C 147.421 165.732, 146 167.814, 146 168.253 C 146 169.634, 150.481 170.834, 161.157 172.310 C 172.013 173.811, 174.411 173.431, 175.488 170.039 C 176.674 166.300, 174.398 164.251, 167.259 162.631 C 152.743 159.336, 152.690 159.339, 149.157 163.625 M 537.500 162.205 C 532.550 163.290, 527.938 164.643, 527.250 165.211 C 525.390 166.749, 525.737 170.452, 527.927 172.434 C 529.749 174.083, 530.476 174.088, 541.177 172.532 C 558.897 169.954, 559.010 169.886, 554.784 164.385 C 550.831 159.237, 550.966 159.254, 537.500 162.205 M 128.655 189.254 C 127.292 190.617, 125.243 193.563, 124.101 195.802 L 122.024 199.873 124.210 200.567 C 126.905 201.422, 198.556 200.279, 224.500 198.967 C 260.070 197.167, 280 195.049, 280 193.067 C 280 191.592, 269.078 190.981, 225.734 190.030 C 170.773 188.824, 147.352 188.111, 138.316 187.368 C 131.609 186.817, 130.967 186.942, 128.655 189.254 M 547.500 188.081 C 538.150 188.511, 508.225 189.384, 481 190.021 C 429.618 191.224, 422 191.617, 422 193.062 C 422 194.776, 429.945 195.886, 453.500 197.462 C 477.698 199.081, 536.129 200.916, 565.250 200.970 C 580.631 200.999, 581 200.950, 581 198.884 C 581 197.720, 579.387 194.570, 577.415 191.884 C 573.304 186.284, 576.835 186.733, 547.500 188.081 M 190.958 212.335 C 190.706 212.564, 172.950 213.785, 151.500 215.047 C 130.050 216.309, 111.902 217.799, 111.172 218.358 C 110.442 218.917, 108.757 221.519, 107.429 224.139 L 105.015 228.904 109.757 228.432 C 177.417 221.692, 203.838 218.562, 205.283 217.117 C 206.136 216.264, 206.161 215.476, 205.373 214.222 C 204.569 212.942, 202.640 212.425, 197.853 212.209 C 194.312 212.049, 191.209 212.106, 190.958 212.335 M 497.011 213.487 C 496.332 214.305, 496.028 215.630, 496.336 216.432 C 496.949 218.032, 499.300 218.561, 512 219.961 C 516.675 220.476, 528.600 221.837, 538.500 222.984 C 564.286 225.973, 597.340 228.993, 597.919 228.414 C 598.482 227.852, 594.024 219.298, 592.499 218.012 C 591.948 217.548, 585.423 216.873, 577.999 216.511 C 570.575 216.150, 550.551 214.987, 533.503 213.927 C 496.385 211.619, 498.539 211.645, 497.011 213.487 M 260.901 217.432 C 260.472 217.861, 250.185 218.595, 232 219.494 C 226.775 219.753, 218.675 220.404, 214 220.941 C 209.325 221.479, 203.250 222.154, 200.500 222.443 C 197.750 222.731, 182.225 224.748, 166 226.926 C 130.716 231.662, 110.834 233.997, 105.773 233.999 C 101.601 234, 100.114 235.592, 97.582 242.766 L 96.089 247 98.957 247 C 104.130 247, 198.906 231.856, 221.500 227.420 C 235.825 224.607, 264.259 218.049, 264.917 217.407 C 265.146 217.183, 264.433 217, 263.333 217 C 262.233 217, 261.139 217.194, 260.901 217.432 M 437.085 217.418 C 438.034 218.367, 480.209 227.186, 504 231.410 C 518.025 233.900, 546.375 238.444, 567 241.508 C 587.625 244.572, 605.048 247.267, 605.718 247.496 C 606.388 247.725, 607.147 247.572, 607.404 247.155 C 608.099 246.030, 602.741 235.822, 601 234.954 C 600.175 234.542, 590.050 233.243, 578.500 232.066 C 566.950 230.890, 542.650 227.940, 524.500 225.511 C 485.482 220.290, 472.351 218.887, 468.695 219.550 C 467.213 219.819, 466 219.693, 466 219.270 C 466 218.846, 462.962 218.500, 459.250 218.500 C 455.538 218.500, 448.937 218.162, 444.582 217.749 C 440.227 217.335, 436.853 217.187, 437.085 217.418 M 295 230.894 L 295 240.787 300.956 246.874 L 306.911 252.960 350.441 253.021 L 393.970 253.081 399.985 246.934 L 406 240.787 406 230.894 L 406 221 350.500 221 L 295 221 295 230.894 M 233 240.849 C 217.325 247.876, 193.475 259.162, 180 265.930 C 140.571 285.732, 139.911 286.173, 142.340 291.063 C 143.997 294.400, 147.279 294.609, 152.286 291.697 C 154.603 290.349, 180.943 276.998, 210.818 262.028 C 240.693 247.058, 265.402 234.117, 265.727 233.269 C 266.438 231.416, 264.826 228.583, 262.893 228.287 C 262.127 228.170, 248.675 233.823, 233 240.849 M 436.200 229.200 C 432.766 232.634, 434.520 233.850, 460.500 246.041 C 479.649 255.027, 532.364 281.402, 550.726 291.183 C 557.824 294.965, 560.279 294.496, 560.805 289.257 C 561.186 285.469, 560.572 285.022, 539.500 273.761 C 515.156 260.751, 499.669 253.313, 475 242.783 C 436.032 226.149, 438.416 226.984, 436.200 229.200 M 161.500 251.543 C 145.169 256.859, 129.231 261.572, 107.500 267.513 C 98.150 270.069, 89.375 272.494, 88 272.903 C 85.938 273.516, 85.210 274.773, 83.848 280.073 C 82.939 283.608, 82.152 287.786, 82.098 289.358 C 82.008 291.982, 82.223 292.161, 84.712 291.536 C 94.085 289.184, 172.823 258.614, 177.750 255.415 C 181.350 253.077, 180.481 249.303, 176 247.811 C 175.175 247.536, 168.650 249.216, 161.500 251.543 M 524.655 248.829 C 522.173 251.571, 522.646 253.765, 526.104 255.554 C 536.647 261.006, 617.482 292, 621.158 292 C 621.621 292, 622 291.080, 622 289.956 C 622 286.606, 618.823 274.589, 617.617 273.378 C 617.003 272.760, 612.675 271.260, 608 270.044 C 584.535 263.938, 544.475 252.716, 536.562 250.032 C 531.647 248.364, 527.329 247, 526.967 247 C 526.606 247, 525.565 247.823, 524.655 248.829 M 247.238 264.923 C 227.810 281.208, 222.666 285.550, 194.500 309.440 C 184.050 318.304, 166.500 332.901, 155.500 341.878 C 130.070 362.633, 125 366.947, 125 367.830 C 125 368.223, 128.683 369.306, 133.184 370.236 L 141.367 371.928 147.934 366.616 C 171.638 347.437, 270.036 256.869, 269.985 254.277 C 269.958 252.917, 268.557 251.375, 266.738 250.704 C 265.439 250.225, 260.320 253.958, 247.238 264.923 M 433.278 251.250 C 432.746 251.938, 432.012 253.027, 431.645 253.672 C 431.029 254.755, 450.177 273.074, 479 298.977 C 484.775 304.167, 496.358 314.687, 504.740 322.355 C 525.329 341.191, 523.153 340.055, 528.362 334.695 L 532.684 330.248 524.592 323.397 C 492.623 296.331, 438.061 251.238, 436.606 250.679 C 434.324 249.803, 434.408 249.789, 433.278 251.250 M 425.750 273.080 C 424.788 273.641, 424.006 274.865, 424.013 275.800 C 424.019 276.735, 431.069 286.275, 439.679 297 C 470.432 335.310, 487.855 356.545, 490.919 359.452 L 494.031 362.404 499.765 360.525 C 502.919 359.492, 505.798 358.389, 506.163 358.073 C 506.528 357.758, 503.153 353.402, 498.663 348.393 C 456.446 301.294, 434.579 277.209, 431.346 274.250 C 428.586 271.723, 428.213 271.645, 425.750 273.080 M 262.787 282.196 C 258.127 287.313, 246.951 299.600, 237.951 309.500 C 215.092 334.644, 198.486 352.458, 184.640 366.692 L 172.779 378.883 178.112 384.942 C 181.045 388.274, 183.931 391, 184.525 391 C 186.052 391, 246.535 317.505, 267.179 290.565 C 277.642 276.911, 278.852 273.773, 273.879 273.196 C 271.687 272.942, 269.873 274.414, 262.787 282.196 M 346.189 284.039 C 344.219 285.874, 344 287.078, 344 296.087 L 344 306.095 350.250 305.798 L 356.500 305.500 356.785 296.430 C 357.036 288.464, 356.814 287.033, 354.963 284.680 C 352.447 281.481, 349.189 281.243, 346.189 284.039 M 165.500 298.159 C 135.709 314.206, 121.185 321.897, 103.500 330.992 C 93.600 336.084, 83.362 341.390, 80.750 342.784 L 76 345.318 76 355.659 C 76 363.093, 76.341 366, 77.212 366 C 79.910 366, 114.214 345.337, 145.861 324.648 C 154.462 319.025, 167.049 310.841, 173.830 306.462 C 180.612 302.083, 186.620 297.656, 187.182 296.625 C 188.718 293.807, 186.341 289.990, 183.081 290.040 C 181.661 290.061, 173.750 293.715, 165.500 298.159 M 515.980 292.038 C 513.646 296.399, 513.576 296.339, 543.314 315.189 C 553.952 321.932, 554.192 322.025, 558.153 320.959 C 560.366 320.363, 565.125 319.875, 568.726 319.875 C 575.585 319.875, 575.743 319.426, 570 316.258 C 533.347 296.038, 521.765 290, 519.634 290 C 518.078 290, 516.642 290.801, 515.980 292.038 M 106.500 302.699 C 100.450 305.221, 91.459 308.731, 86.520 310.499 C 76.806 313.977, 76.304 314.545, 76.100 322.281 C 75.927 328.841, 75.644 328.915, 108.500 313.754 C 122.898 307.110, 125 305.683, 125 302.545 C 125 296.712, 120.781 296.747, 106.500 302.699 M 580.200 299.200 C 578.218 301.182, 578.817 304.834, 581.403 306.528 C 586.009 309.547, 624.232 326.102, 625.860 325.784 C 627.035 325.554, 627.522 324.335, 627.577 321.482 C 627.739 313.175, 628.864 313.971, 603.724 304.615 C 585.540 297.848, 582.298 297.102, 580.200 299.200 M 246.958 349.198 C 241.818 357.064, 232.829 370.700, 226.982 379.500 C 209.501 405.812, 203.770 415.175, 204.658 415.975 C 205.537 416.767, 214.768 420, 216.151 420 C 217.284 420, 251.570 361.820, 260.544 344.669 C 263.843 338.366, 263.361 335.749, 258.801 335.198 C 256.588 334.931, 255.241 336.523, 246.958 349.198 M 439.422 337.454 C 438.905 339.516, 440.663 343.367, 448.243 356.765 C 453.450 365.969, 459.665 376.988, 462.054 381.250 C 464.443 385.512, 466.749 389, 467.179 389 C 467.608 389, 468.873 387.313, 469.990 385.250 C 471.107 383.188, 472.538 380.774, 473.169 379.887 C 474.117 378.554, 471.883 374.558, 460.307 356.887 C 447.452 337.262, 446.041 335.474, 443.183 335.189 C 440.552 334.927, 439.968 335.278, 439.422 337.454 M 347.364 352.170 C 343.732 353.928, 343 357.345, 343 372.547 L 343 387 350.570 387 L 358.141 387 357.820 371.411 L 357.500 355.822 354.694 353.411 C 351.636 350.783, 350.592 350.607, 347.364 352.170 M 252.961 409.190 C 248.032 419.195, 244 428.173, 244 429.143 C 244 430.273, 245.167 431.243, 247.250 431.845 C 249.037 432.361, 251.196 433.070, 252.047 433.420 C 253.280 433.929, 255.204 430.079, 261.539 414.435 L 269.485 394.811 267.132 392.906 C 265.837 391.858, 264.136 391, 263.350 391 C 262.493 391, 258.338 398.274, 252.961 409.190 M 434.625 392.518 C 432.418 394.725, 432.560 395.579, 436.287 402.500 C 439.390 408.261, 439.669 408.495, 443.293 408.383 C 445.369 408.319, 447.306 408.028, 447.597 407.737 C 447.887 407.446, 446.410 403.674, 444.313 399.354 C 440.265 391.016, 437.839 389.304, 434.625 392.518 M 122.055 449.750 C 114.523 454.163, 103.860 464.319, 98.664 472.028 C 95.283 477.044, 95.118 477.604, 96.679 478.750 C 99.998 481.186, 102.186 479.937, 111.812 470.113 C 119.230 462.544, 122.955 459.556, 127.709 457.363 C 135.111 453.949, 137.237 451.025, 134.509 448.010 C 131.907 445.134, 129.313 445.497, 122.055 449.750 M 150.037 471.064 C 141.705 473.245, 130.568 479.201, 123.904 485.038 L 119.500 488.896 128.327 484.513 C 140.644 478.396, 153.395 475.595, 165.937 476.251 C 177.270 476.843, 183.897 479.088, 192.981 485.410 C 198.584 489.309, 199.603 489.686, 202.144 488.800 C 203.717 488.252, 205.217 487.457, 205.479 487.034 C 206.311 485.687, 197.956 478.255, 192.127 475.158 C 180.216 468.830, 164.434 467.295, 150.037 471.064 M 165.496 507.250 C 161.799 510.430, 161.756 515.533, 165.399 518.667 C 168.441 521.283, 170.131 521.533, 173.316 519.837 C 178.703 516.967, 179.401 512.247, 175.077 507.923 C 171.570 504.416, 169 504.236, 165.496 507.250 M 230 576.069 C 217.934 578.678, 207.752 582.092, 199.217 586.391 C 192.395 589.827, 187.092 593.521, 188 594.204 C 188.275 594.411, 190.174 595.813, 192.220 597.318 L 195.939 600.056 202.988 596.506 C 223.349 586.253, 250.690 579.892, 274.227 579.932 C 281.410 579.944, 287.015 579.681, 286.682 579.349 C 286.349 579.016, 282.572 577.863, 278.288 576.788 C 266.187 573.750, 242.365 573.395, 230 576.069 M 245.626 593.750 C 246.064 595.112, 245.970 595.193, 245.202 594.115 C 243.886 592.268, 240.504 593.156, 230.500 597.973 C 222.233 601.954, 212.627 608.603, 213.396 609.812 C 213.637 610.190, 215.373 611.319, 217.254 612.320 L 220.674 614.139 233.587 605.564 C 240.689 600.848, 247.015 596.569, 247.643 596.055 C 248.272 595.541, 249.060 595.393, 249.393 595.727 C 249.727 596.060, 250 595.898, 250 595.367 C 250 593.992, 247.830 592, 246.331 592 C 245.575 592, 245.290 592.707, 245.626 593.750 M 268.627 616.468 C 264.266 618.023, 258.618 622.292, 255.632 626.292 C 252.733 630.175, 254.124 630.521, 259.130 627.162 C 263.981 623.908, 275.799 618.669, 281.081 617.432 L 284.500 616.632 280.500 615.873 C 274.867 614.806, 273.034 614.898, 268.627 616.468 M 389.500 621.333 L 385.500 622.616 393.048 623.278 C 405.366 624.359, 412.915 627.206, 426.524 635.905 C 429.308 637.685, 437.276 635.661, 436.813 633.292 C 436.376 631.058, 426.546 624.502, 420.523 622.426 C 414.035 620.191, 395.138 619.525, 389.500 621.333" stroke="none" fill="#f8f8f7" fill-rule="evenodd"/><path d="M 330.500 0.698 C 298.398 2.863, 261.089 10.676, 233.739 20.960 C 165.430 46.647, 113.367 86.260, 67.992 147.070 C 2.258 235.166, -16.879 350.175, 16.171 458.500 C 28.127 497.688, 51.187 540.588, 79.208 575.775 C 91.047 590.642, 117.405 617.261, 131 628.079 C 170.770 659.728, 213.202 681.839, 259.331 694.952 C 329.824 714.991, 410.637 710.787, 478.382 683.556 C 553.133 653.509, 614.051 600.941, 656.205 530.103 C 677.226 494.779, 693.437 449.469, 699.980 407.751 C 703.700 384.029, 705.803 346.964, 704.136 334.500 C 703.548 330.100, 702.346 319.750, 701.466 311.500 C 688.868 193.444, 607.660 83.210, 495.255 31.586 C 463.716 17.101, 433.116 8.044, 400.500 3.541 C 378.844 0.551, 350.027 -0.619, 330.500 0.698 M 314 25.523 C 256.965 32.567, 202.305 54.907, 155.500 90.303 C 111.365 123.681, 70.917 175.693, 49.196 227 C 31.039 269.890, 23.163 312.097, 24.292 360.452 C 25.217 400.088, 30.921 429.859, 44.874 467.883 C 64.616 521.682, 102.047 573.847, 146.203 609.097 C 189.839 643.932, 238 667.171, 286.954 677.013 C 312.598 682.168, 325.088 683.373, 352.500 683.337 C 405.992 683.267, 447.746 673.641, 493.264 650.885 C 560.149 617.447, 613.196 564.701, 646.015 499 C 698.056 394.822, 691.185 272.517, 627.902 176.540 C 602.958 138.709, 574.997 109.523, 540.206 85 C 495.273 53.329, 452.503 35.678, 399.500 26.932 C 382.444 24.118, 332.096 23.288, 314 25.523 M 324.500 37.109 C 287.355 40.569, 247.829 51.997, 213.516 69.197 C 198.155 76.897, 195.048 78.694, 180.500 88.293 C 134.986 118.324, 95.216 163.021, 69.983 212.500 C 41.790 267.782, 31.268 326.579, 38.488 388.500 C 44.331 438.620, 61.491 485.412, 89.421 527.383 C 137.102 599.037, 211.197 649.322, 293.500 665.885 C 313.779 669.966, 320.695 670.501, 352.500 670.454 C 379.446 670.414, 385.358 670.118, 397.710 668.187 C 482.032 655.008, 559.468 606.036, 610.680 533.500 C 641.645 489.641, 660.078 440.409, 666.652 384 C 668.658 366.796, 668.034 324.920, 665.536 309 C 655.993 248.194, 630.194 193.530, 587.897 144.500 C 557.900 109.728, 515.337 79.052, 470.861 60.148 C 444.306 48.861, 410.465 40.307, 381.097 37.457 C 365.320 35.927, 338.936 35.764, 324.500 37.109 M 328 58.007 C 271.987 62.651, 215.858 85.794, 168.847 123.630 C 121.511 161.728, 85.440 216.357, 68.899 275 C 60.136 306.070, 57.085 344.662, 60.632 379.602 L 61.251 385.704 75.066 386.363 C 93.947 387.265, 107.907 388.720, 124.694 391.538 C 150.534 395.876, 162.150 398.245, 163.141 399.379 C 163.679 399.996, 168.865 408.150, 174.665 417.500 C 180.465 426.850, 185.774 435.095, 186.463 435.822 C 187.151 436.548, 196.666 439.140, 207.607 441.580 C 218.548 444.020, 229.820 446.688, 232.656 447.509 L 237.812 449.001 249.087 467.251 C 255.288 477.288, 262.488 488.679, 265.087 492.565 L 269.811 499.630 281.420 502.417 C 287.805 503.949, 293.881 505.945, 294.923 506.852 C 296.913 508.584, 312.181 534.152, 311.583 534.750 C 311.393 534.941, 305.446 534.588, 298.368 533.966 C 270.739 531.539, 241.304 535.628, 211.421 546.045 C 199.301 550.270, 178.209 560.618, 168.604 567.051 L 160.708 572.340 165.104 576.140 C 167.522 578.230, 169.869 579.954, 170.320 579.970 C 170.771 579.987, 173.209 578.576, 175.738 576.837 C 183.956 571.182, 206.235 560.464, 217.500 556.744 C 244.372 547.872, 262.586 544.712, 287 544.686 C 319.428 544.652, 341.815 551.990, 355.409 567.110 C 362.401 574.887, 365.273 581.831, 365.800 592.241 C 366.203 600.174, 365.998 601.484, 363.582 606.422 C 356.652 620.586, 341.452 625.895, 329.313 618.390 C 318.303 611.583, 315.868 600.187, 323.515 591.254 C 327.626 586.451, 327.853 584.605, 324.595 582.470 C 317.130 577.579, 306.576 592.597, 308.356 605.577 C 309.828 616.321, 317.240 625.907, 327.880 630.830 C 336.157 634.659, 347.262 634.599, 355.239 630.682 C 367.584 624.620, 375.233 613.173, 375.849 599.839 C 376.554 584.608, 371.448 572.276, 358.576 558.117 L 355.500 554.734 364 559.105 C 374.532 564.522, 384.829 572.213, 397.110 583.835 L 406.556 592.776 425.680 596.388 C 436.198 598.375, 445.003 600, 445.246 600 C 445.489 600, 450.296 605.204, 455.928 611.563 C 461.559 617.923, 466.779 623.362, 467.527 623.649 C 470.003 624.599, 512.950 600.009, 512.987 597.621 C 513.004 596.459, 501.004 597.658, 488.500 600.067 C 483 601.127, 477.989 601.995, 477.364 601.997 C 475.696 602.001, 462.720 586.860, 463.682 586.031 C 464.857 585.018, 481.346 579.402, 489 577.408 C 493.183 576.319, 499.600 575.694, 507 575.656 C 518.632 575.596, 524.146 576.587, 531.263 580.018 L 535.027 581.831 541.114 576.746 C 547.185 571.672, 547.195 571.655, 545.018 570.014 C 542.306 567.968, 530.754 563.428, 524.321 561.880 C 521.670 561.242, 514.100 560.738, 507.500 560.759 C 495.057 560.798, 486.767 562.120, 470.520 566.654 C 458.383 570.041, 446.433 570.730, 438 568.529 C 434.425 567.596, 418.900 561.527, 403.500 555.043 C 388.100 548.559, 373.307 542.440, 370.628 541.445 C 366.054 539.746, 365.901 539.577, 368.128 538.697 C 372.152 537.107, 389.944 537.053, 397.211 538.609 C 400.902 539.399, 408.622 542.014, 414.366 544.421 C 437.125 553.956, 450.628 554.203, 477.825 545.579 C 493.587 540.580, 498.496 539.661, 509 539.740 C 520.323 539.825, 528.446 541.584, 540.534 546.568 C 547.835 549.579, 551.078 550.342, 558 550.679 C 568.321 551.182, 569.767 550.527, 576.076 542.500 L 580.792 536.500 568.146 536.449 C 556.121 536.401, 554.984 536.214, 545 532.641 C 525.359 525.612, 524.850 525.516, 507.500 525.570 L 491.500 525.620 477 530.255 C 460.748 535.451, 448.488 537.490, 439.344 536.516 C 431.877 535.721, 427.210 534.348, 415.640 529.542 C 393.031 520.151, 376.229 519.486, 350.503 526.966 C 346.655 528.085, 341.609 529, 339.290 529 C 335.251 529, 334.902 528.745, 330.948 522.923 C 328.678 519.581, 326.974 516.741, 327.160 516.612 C 328.280 515.843, 360.573 506.894, 365.761 505.916 C 369.533 505.205, 377.087 504.922, 384.761 505.205 C 396.721 505.646, 398.325 505.960, 411 510.335 C 425.876 515.469, 437.858 517.488, 447.455 516.476 C 450.780 516.126, 460.025 514.655, 468 513.208 C 480.601 510.921, 485.250 510.572, 503.500 510.545 C 522.991 510.515, 525.255 510.704, 535 513.171 C 551.638 517.383, 560.760 518.369, 576.465 517.653 C 584.184 517.302, 591.504 516.736, 592.731 516.395 C 594.563 515.887, 603 504.491, 603 502.525 C 603 502.236, 591.239 502, 576.864 502 C 551.537 502, 550.262 501.904, 535.661 498.898 C 520.775 495.833, 520.314 495.801, 497.547 496.268 C 480.892 496.611, 472.004 497.244, 465.500 498.553 C 459.295 499.802, 451.842 500.378, 441.500 500.408 C 426.699 500.451, 426.354 500.401, 415.500 496.671 C 399.633 491.217, 393.009 489.893, 381.505 489.875 C 369.957 489.857, 362.842 490.947, 350.824 494.573 C 340.096 497.810, 331.677 498.590, 323.928 497.066 C 317.889 495.878, 311 493.204, 311 492.048 C 311 491.470, 349.878 478.950, 357.500 477.074 C 359.700 476.532, 366.245 475.613, 372.044 475.031 C 385.884 473.643, 396.778 474.830, 414.500 479.658 L 428.500 483.472 520.682 483.779 L 612.865 484.087 615.364 479.794 C 616.738 477.432, 618.168 474.262, 618.540 472.750 L 619.217 470 524.054 470 L 428.892 470 416.696 465.968 C 398.974 460.109, 389.245 458.626, 373.750 459.420 C 361.947 460.025, 360.994 459.941, 360.923 458.287 C 360.305 443.858, 359.353 440.751, 354.835 438.415 C 350.664 436.258, 347.360 436.706, 343.766 439.918 C 340.565 442.777, 340.490 443.040, 340 453.035 L 339.500 463.235 321 469.205 C 301.212 475.590, 295.433 476.659, 286.637 475.560 C 281.079 474.866, 281.036 474.834, 274.987 466.903 C 271.647 462.525, 268.687 458.348, 268.408 457.621 C 268.055 456.700, 271.098 455.160, 278.461 452.537 C 284.269 450.468, 289.263 448.383, 289.559 447.905 C 289.854 447.426, 291.628 427.115, 293.501 402.767 C 296.805 359.812, 297.554 351.054, 300.454 321.500 C 301.210 313.800, 302.624 297.038, 303.598 284.250 L 305.368 261 350.071 261 L 394.773 261 395.357 265.250 C 396.388 272.760, 405.591 383.818, 408.553 424.500 C 410.406 449.953, 410.007 449.085, 420.730 450.991 C 428.526 452.377, 625.785 452.615, 627.160 451.240 C 627.597 450.803, 628.840 447.870, 629.923 444.723 L 631.892 439 538.380 439 C 474.871 439, 444.238 438.662, 442.903 437.948 C 440.544 436.686, 435 429.251, 435 427.350 C 435 426.226, 451.782 426, 535.400 426 L 635.801 426 636.853 421.250 C 639.425 409.634, 639.521 410.347, 635.299 409.650 C 633.210 409.305, 598.502 409.017, 558.171 409.011 L 484.841 409 485.543 405.750 C 486.399 401.781, 489.283 395.946, 493.250 390.155 C 499.360 381.236, 514.879 374.245, 526.437 375.203 L 532.013 375.666 533.088 371.583 C 535.785 361.342, 545.501 350.950, 556.161 346.905 C 564.739 343.650, 575.958 343.687, 584.500 346.999 C 595.345 351.203, 606.752 365.346, 608.595 376.871 L 609.256 381 614.878 381.022 C 618.215 381.035, 622.194 381.813, 624.668 382.936 C 629.837 385.283, 636.526 392.047, 638.167 396.586 C 638.846 398.464, 639.713 400, 640.094 400 C 641.086 400, 642.831 389.413, 644.132 375.500 C 645.559 360.233, 644.641 322.085, 642.508 308 C 632.670 243.057, 597.322 178.985, 546.145 133.329 C 535.184 123.550, 512.219 106.622, 499.715 99.105 C 465.389 78.468, 427.743 65.131, 387.997 59.526 C 374.285 57.592, 342.663 56.791, 328 58.007 M 360.482 74.660 C 359.426 75.717, 359 78.385, 359 83.955 C 359 90.943, 359.212 91.822, 361.013 92.293 C 362.355 92.644, 363.375 92.167, 364.073 90.864 C 365.470 88.253, 367.110 77.922, 366.455 75.858 C 365.730 73.574, 362.264 72.879, 360.482 74.660 M 335.340 75.556 C 334.665 77.315, 335.489 84.390, 337.040 90.147 C 337.871 93.233, 338.546 94, 340.432 94 C 341.727 94, 343.023 93.383, 343.312 92.629 C 343.869 91.177, 342.256 76.223, 341.391 74.824 C 340.503 73.387, 335.962 73.936, 335.340 75.556 M 309.750 76.689 C 307.068 77.390, 307.618 79.624, 313.277 91 C 318.462 101.423, 321.226 104.181, 322.683 100.383 C 323.348 98.650, 320.788 90.132, 316.782 80.750 C 314.785 76.072, 313.952 75.591, 309.750 76.689 M 384.590 81.250 C 381.016 89.406, 377.786 99.845, 378.485 100.976 C 379.760 103.039, 382.843 101.929, 384.671 98.750 C 385.698 96.963, 388.292 91.723, 390.433 87.106 C 394.158 79.079, 394.247 78.654, 392.473 77.356 C 388.924 74.761, 387.021 75.701, 384.590 81.250 M 282.750 83.572 C 281.238 84.393, 280 85.398, 280 85.807 C 280 86.702, 303.711 115.203, 305.243 116.150 C 307.226 117.376, 309.097 115.886, 308.407 113.632 C 307.015 109.089, 287.916 81.938, 286.183 82.040 C 285.807 82.062, 284.262 82.751, 282.750 83.572 M 412.203 85.422 C 408.216 89.963, 394.388 110.919, 393.566 113.666 C 392.188 118.275, 395.345 117.354, 400.721 111.578 C 408.114 103.636, 421 87.504, 421 86.192 C 421 85.126, 417.184 82, 415.881 82 C 415.510 82, 413.855 83.540, 412.203 85.422 M 253.750 91.744 C 252.238 92.690, 251 93.793, 251 94.195 C 251 95.690, 280.571 118.921, 284.177 120.259 C 285.099 120.601, 286.374 120.254, 287.010 119.488 C 287.903 118.412, 287.765 117.574, 286.402 115.798 C 283.898 112.535, 259.211 90.548, 257.730 90.263 C 257.054 90.132, 255.262 90.799, 253.750 91.744 M 430.480 101.578 C 415.467 115.531, 413.563 117.769, 415.117 119.641 C 415.737 120.389, 416.571 121, 416.970 121 C 417.916 121, 433.373 109.360, 443.301 101.171 L 451.101 94.737 448.876 92.368 C 447.653 91.066, 445.816 90, 444.794 90 C 443.773 90, 437.331 95.210, 430.480 101.578 M 227.004 103.650 C 223.976 106.198, 223.925 106.365, 225.678 107.996 C 226.680 108.930, 237.625 115.444, 250 122.473 C 262.375 129.501, 274.695 136.629, 277.377 138.312 C 282.071 141.257, 282.307 141.301, 283.627 139.495 C 284.382 138.462, 285 137.332, 285 136.983 C 285 135.509, 279.419 131.552, 261.278 120.160 C 250.706 113.522, 239.687 106.495, 236.791 104.545 C 233.896 102.595, 231.218 101, 230.840 101 C 230.462 101, 228.736 102.192, 227.004 103.650 M 454 111.573 C 427.587 128.165, 417.140 135.192, 416.533 136.775 C 415.871 138.500, 417.817 141.220, 419.408 140.793 C 420.396 140.528, 448.872 124.495, 468.165 113.341 C 478.522 107.353, 478.901 106.789, 474.705 103.588 C 472.838 102.165, 471.129 101.047, 470.906 101.104 C 470.683 101.161, 463.075 105.872, 454 111.573 M 344.073 117.635 C 341.650 120.715, 341.402 124.702, 343.453 127.629 C 344.839 129.608, 344.393 130.069, 333.703 137.691 C 327.541 142.085, 317.454 149.143, 311.287 153.376 C 305.119 157.609, 299.837 161.455, 299.548 161.923 C 298.471 163.664, 302.491 165.515, 308.401 166 L 314.500 166.500 314.773 184.199 L 315.046 201.899 309.273 202.199 C 304.498 202.448, 303.522 202.802, 303.625 204.250 C 303.694 205.213, 303.806 207.800, 303.875 210 L 304 214 350.500 214 L 397 214 397 208 L 397 202 391.500 202 L 386 202 386 184 L 386 166 391.845 166 C 396.238 166, 398.101 165.546, 399.345 164.171 C 400.255 163.165, 401 162.097, 401 161.797 C 401 161.498, 392.113 155.134, 381.250 147.657 C 354.321 129.120, 355.510 130.173, 357.400 126.530 C 360.420 120.710, 356.736 115, 349.962 115 C 347.030 115, 345.665 115.611, 344.073 117.635 M 200.417 119.491 C 196.659 122.840, 196.581 123.033, 198.500 124.227 C 202.767 126.882, 268.972 155, 270.957 155 C 271.492 155, 272.394 154.132, 272.962 153.071 C 273.800 151.504, 273.524 150.771, 271.492 149.173 C 268.826 147.076, 206.757 116, 205.234 116 C 204.739 116, 202.571 117.571, 200.417 119.491 M 484 121.882 C 439.669 143.539, 428.497 149.518, 428.180 151.754 C 427.990 153.093, 428.487 154.250, 429.404 154.601 C 430.789 155.133, 445.332 149.530, 476 136.651 C 500.010 126.567, 504.486 124.430, 504.779 122.908 C 505.080 121.349, 498.340 115.868, 496.446 116.132 C 495.926 116.204, 490.325 118.792, 484 121.882 M 176.077 138.589 C 172.439 141.650, 172.133 144.285, 175.250 145.701 C 180.796 148.219, 215.632 156.335, 218.140 155.693 C 223.598 154.296, 222.768 149.776, 216.662 147.647 C 209.615 145.189, 180.540 135.994, 179.827 135.997 C 179.456 135.999, 177.769 137.165, 176.077 138.589 M 515.500 138.110 C 512.750 139.166, 504.200 141.871, 496.500 144.121 C 488.800 146.371, 481.879 148.801, 481.120 149.521 C 479.274 151.273, 480.424 155.616, 482.906 156.265 C 484.434 156.665, 518.149 148.627, 527.827 145.555 C 530.687 144.647, 530.570 142.831, 527.411 139.077 C 524.435 135.540, 522.584 135.390, 515.500 138.110 M 194.926 159.074 C 192.523 161.477, 192.429 165.637, 194.750 166.826 C 196.716 167.833, 197.029 167.887, 224 171.957 C 257.921 177.076, 286 179.392, 286 177.071 C 286 175.186, 272.619 171.993, 231.029 163.951 C 214.238 160.705, 199.679 157.846, 198.676 157.598 C 197.672 157.351, 195.985 158.015, 194.926 159.074 M 470 163.933 C 434.727 171.170, 419.569 174.660, 416.590 176.233 C 414.931 177.109, 414.883 177.355, 416.225 178.106 C 418.955 179.634, 459.394 175.129, 490 169.888 C 507.360 166.915, 510 165.914, 510 162.309 C 510 160.355, 506.252 156.981, 504.250 157.133 C 503.288 157.206, 487.875 160.266, 470 163.933 M 149.068 164.065 C 147.201 166.642, 146.322 168.722, 146.867 169.267 C 148.348 170.748, 171.277 173.911, 173.182 172.897 C 175.456 171.687, 176.340 168.504, 175.064 166.120 C 174.050 164.224, 167.325 162.183, 156.339 160.435 C 152.308 159.794, 152.079 159.908, 149.068 164.065 M 537.500 162.178 C 528.607 164.101, 526 165.655, 526 169.036 C 526 169.946, 526.833 171.444, 527.850 172.364 C 529.560 173.912, 530.524 173.924, 540.600 172.526 C 559.229 169.941, 559.412 169.817, 553.896 163.535 C 550.352 159.498, 550.026 159.471, 537.500 162.178 M 326.447 184.995 L 326.500 201.989 350.250 201.995 L 374 202 374 185 L 374 168 350.197 168 L 326.394 168 326.447 184.995 M 128.083 190.070 C 124.200 194.321, 122.334 198.734, 123.799 200.199 C 124.583 200.983, 139.365 200.963, 176.694 200.126 C 240.287 198.701, 273.275 196.616, 278.470 193.693 C 280.262 192.684, 279.914 192.471, 275.500 191.871 C 272.750 191.498, 250.250 190.714, 225.500 190.130 C 162.953 188.653, 143.407 188.048, 136.780 187.384 C 131.287 186.833, 130.942 186.940, 128.083 190.070 M 550.500 188.043 C 542.800 188.444, 518.950 189.075, 497.500 189.447 C 457.475 190.140, 423.113 191.554, 422.119 192.548 C 421.187 193.480, 424.087 194.789, 428.415 195.390 C 445.872 197.818, 522.239 200.777, 562.483 200.586 C 583.365 200.486, 583.622 200.339, 577.491 191.987 C 573.310 186.293, 576.163 186.709, 550.500 188.043 M 183 213.038 C 170.865 214.060, 120.613 217.159, 116 217.171 C 114.075 217.176, 111.775 217.828, 110.889 218.619 C 109.162 220.162, 105.418 227.783, 106.094 228.379 C 106.550 228.783, 150.152 224.676, 162.500 223.066 C 169.486 222.155, 191.005 219.625, 200.854 218.556 C 205.200 218.084, 206.822 216.529, 205.374 214.222 C 204.085 212.171, 197.467 211.820, 183 213.038 M 497.116 213.360 C 496.379 214.248, 496.028 215.630, 496.336 216.432 C 496.955 218.046, 499.282 218.561, 512.500 220.011 C 517.450 220.554, 531.400 222.099, 543.500 223.445 C 555.600 224.791, 571.125 226.379, 578 226.975 C 584.875 227.571, 592.188 228.212, 594.250 228.398 C 596.313 228.585, 598 228.557, 598 228.336 C 598 226.944, 592.700 217.837, 591.709 217.526 C 591.044 217.317, 572.950 216.193, 551.500 215.028 C 530.050 213.863, 509.340 212.648, 505.478 212.327 C 499.745 211.852, 498.211 212.041, 497.116 213.360 M 444 219.033 C 468.697 225.427, 511.492 233.225, 567 241.447 C 583.775 243.932, 599.638 246.365, 602.250 246.853 C 608.034 247.935, 608.295 246.961, 604.227 239.500 C 601.838 235.119, 601.066 234.467, 598 234.230 C 587.665 233.433, 553.936 229.464, 528 225.993 C 487.253 220.540, 481.802 219.925, 474.173 219.922 C 470.503 219.920, 462.775 219.487, 457 218.959 C 451.225 218.431, 444.250 217.795, 441.500 217.546 C 436.942 217.132, 437.163 217.263, 444 219.033 M 251.683 218.651 C 251.531 218.802, 245.129 219.183, 237.454 219.499 C 220.885 220.179, 202.275 222.067, 173 226.038 C 137.670 230.829, 120.523 232.948, 111.412 233.648 C 101.616 234.401, 100.072 235.407, 97.608 242.638 C 96.124 246.991, 96.126 247, 98.530 247 C 99.854 247, 109.614 245.646, 120.219 243.990 C 130.823 242.335, 146.925 239.831, 156 238.426 C 199.650 231.666, 241.603 223.783, 256.500 219.542 L 261.500 218.118 256.729 218.247 C 254.104 218.318, 251.834 218.500, 251.683 218.651 M 295 230.894 L 295 240.787 300.975 246.894 L 306.950 253 350.395 253 L 393.840 253 399.920 246.920 L 406 240.840 406 230.920 L 406 221 350.500 221 L 295 221 295 230.894 M 251 232.866 C 245.225 235.507, 233.975 240.541, 226 244.054 C 211.944 250.245, 151.819 279.978, 145.250 283.987 C 142.823 285.468, 142 286.683, 142 288.785 C 142 293.696, 146.241 295.608, 150.527 292.630 C 151.612 291.876, 177.700 278.588, 208.500 263.100 C 239.300 247.613, 264.948 234.280, 265.495 233.471 C 266.655 231.755, 265.086 228.625, 262.893 228.283 C 262.127 228.163, 256.775 230.226, 251 232.866 M 435.966 230.064 C 434.517 232.772, 435.930 234.464, 441.914 237.184 C 467.708 248.907, 515.953 272.730, 542.319 286.765 C 549.919 290.810, 556.846 293.981, 557.712 293.810 C 562.596 292.848, 561.703 286.204, 556.257 282.985 C 545.145 276.416, 505.501 256.195, 492.500 250.464 C 468.142 239.727, 439.924 228, 438.445 228 C 437.689 228, 436.573 228.929, 435.966 230.064 M 524.958 249.042 C 522.196 251.804, 522.520 253.700, 526.066 255.534 C 534.835 260.069, 607.051 287.777, 619.750 291.479 C 622.590 292.307, 622.668 290.327, 620.186 280.500 L 618.419 273.500 611.459 271.304 C 607.632 270.097, 591.866 265.712, 576.426 261.561 C 560.985 257.410, 545.685 253.095, 542.426 251.973 C 528.183 247.069, 527.111 246.889, 524.958 249.042 M 166 250.104 C 158.090 252.988, 121.223 263.970, 102.500 269.020 C 93.700 271.393, 86.164 273.619, 85.753 273.965 C 84.724 274.832, 81.569 290.902, 82.287 291.620 C 83.064 292.397, 86.868 291.134, 111.500 281.919 C 145.853 269.068, 178.253 255.628, 179.411 253.750 C 181.053 251.087, 178.943 248.538, 174.899 248.299 C 173.029 248.189, 169.025 249.001, 166 250.104 M 252.342 260.650 C 245.279 266.574, 226.450 282.496, 210.500 296.031 C 180.265 321.690, 158.546 339.750, 138.931 355.543 C 132.568 360.667, 126.780 365.560, 126.069 366.417 C 124.532 368.269, 124.487 368.247, 134.409 370.486 L 141.318 372.045 146.409 367.830 C 180.506 339.597, 270.569 256.207, 269.718 253.655 C 269.538 253.114, 268.444 252.043, 267.287 251.275 C 265.323 249.970, 264.335 250.590, 252.342 260.650 M 432.667 251.667 C 431.005 253.328, 432.393 256.031, 437.250 260.596 C 440.137 263.309, 450.619 272.948, 460.543 282.015 C 503.540 321.301, 520.410 336.581, 522.098 337.773 C 523.674 338.884, 524.455 338.493, 528.273 334.675 L 532.643 330.304 529.072 327.297 C 527.107 325.643, 519.200 318.981, 511.500 312.492 C 497.602 300.781, 460.809 270.142, 445.534 257.561 C 438.287 251.592, 434.483 249.850, 432.667 251.667 M 425.529 273.614 C 424.688 274.455, 424 275.674, 424 276.323 C 424 277.952, 486.003 354.850, 491.387 359.899 L 493.946 362.297 500.024 360.305 C 503.367 359.209, 506.123 357.977, 506.148 357.568 C 506.173 357.159, 498.587 348.426, 489.288 338.162 C 479.990 327.898, 466.784 313.200, 459.941 305.500 C 439.867 282.912, 430.998 273.547, 428.964 272.793 C 427.776 272.352, 426.481 272.662, 425.529 273.614 M 253.718 292.193 C 217.937 331.743, 211.269 338.966, 192.245 358.783 L 172.773 379.067 178.136 384.783 C 181.086 387.927, 183.996 390.500, 184.603 390.500 C 186.244 390.500, 237.730 328.271, 264.342 294.123 C 277.764 276.901, 279.168 273.809, 273.843 273.193 C 271.523 272.924, 268.969 275.336, 253.718 292.193 M 345.557 284.223 C 344.405 285.866, 344 288.992, 344 296.223 L 344 306 350.500 306 L 357 306 357 296.635 C 357 288.675, 356.689 286.874, 354.927 284.635 C 352.281 281.270, 347.764 281.071, 345.557 284.223 M 171.783 294.929 C 166.989 297.620, 157.539 302.722, 150.783 306.266 C 144.027 309.809, 130.400 316.976, 120.500 322.191 C 110.600 327.407, 96.537 334.732, 89.250 338.470 L 76 345.267 76 355.633 C 76 362.205, 76.384 366, 77.050 366 C 79.876 366, 112.267 346.365, 148.500 322.690 C 164.450 312.267, 179.615 302.424, 182.200 300.815 C 187.666 297.413, 188.954 294.711, 186.435 291.928 C 183.827 289.046, 181.367 289.550, 171.783 294.929 M 516.565 291.928 C 513.900 294.873, 515.336 297.205, 522.761 301.988 C 554.621 322.509, 553.978 322.162, 557.843 320.887 C 559.811 320.237, 564.476 319.706, 568.211 319.706 C 571.945 319.706, 575 319.579, 575 319.423 C 575 319.267, 571.513 317.234, 567.250 314.903 C 562.987 312.573, 551.116 306.017, 540.869 300.333 C 530.621 294.650, 521.354 290, 520.274 290 C 519.194 290, 517.525 290.868, 516.565 291.928 M 102.337 304.341 C 93.997 307.728, 84.936 311.288, 82.200 312.251 C 77.427 313.931, 77.200 314.183, 76.550 318.514 C 75.797 323.535, 76.521 327.007, 78.317 326.987 C 79.877 326.970, 121.567 307.604, 123.502 305.998 C 125.302 304.504, 125.462 300.862, 123.800 299.200 C 121.709 297.109, 117.890 298.023, 102.337 304.341 M 580.200 299.200 C 578.257 301.143, 578.813 304.831, 581.293 306.456 C 585.707 309.349, 624.392 326.071, 625.939 325.755 C 628.019 325.330, 627.569 315.042, 625.396 313.362 C 623.122 311.604, 586.129 298, 583.622 298 C 582.400 298, 580.860 298.540, 580.200 299.200 M 251.345 342.757 C 231.968 371.860, 207.017 410.067, 205.610 412.787 C 204.299 415.323, 204.212 416.138, 205.215 416.501 C 210.823 418.532, 215.389 420, 216.099 420 C 217.734 420, 263 341.796, 263 338.971 C 263 336.790, 260.990 334.999, 258.550 335.007 C 257.107 335.012, 254.973 337.307, 251.345 342.757 M 440.200 336.200 C 439.540 336.860, 439 338.026, 439 338.791 C 439 340.100, 459.362 376.983, 464.705 385.353 L 467.164 389.205 470.618 383.961 C 472.518 381.076, 473.943 378.402, 473.786 378.019 C 473.629 377.636, 467.263 367.800, 459.640 356.161 C 448.578 339.271, 445.339 335, 443.590 335 C 442.386 335, 440.860 335.540, 440.200 336.200 M 0.402 353 C 0.402 361.525, 0.556 365.012, 0.743 360.750 C 0.931 356.488, 0.931 349.512, 0.743 345.250 C 0.556 340.988, 0.402 344.475, 0.402 353 M 345.455 353.455 C 343.059 355.850, 343 356.283, 343 371.455 L 343 387 350.500 387 L 358 387 358 372.547 C 358 357.055, 357.282 353.905, 353.343 352.110 C 349.735 350.467, 348.177 350.732, 345.455 353.455 M 252.983 409.535 C 248.042 419.729, 244 428.657, 244 429.376 C 244 430.095, 245.688 431.234, 247.750 431.907 C 249.813 432.579, 251.968 433.332, 252.540 433.578 C 253.112 433.825, 257.153 425.204, 261.523 414.411 L 269.466 394.796 267.122 392.898 C 265.833 391.854, 264.146 391, 263.372 391 C 262.538 391, 258.314 398.536, 252.983 409.535 M 434.461 393.043 C 432.654 395.040, 432.684 395.229, 435.814 401.577 C 439.352 408.751, 440.345 409.495, 444.806 408.310 L 447.855 407.500 444.887 400.500 C 440.853 390.984, 438.104 389.018, 434.461 393.043 M 121.500 449.850 C 112.863 455.366, 105.509 462.349, 99.845 470.415 C 95.300 476.887, 95.041 477.557, 96.642 478.727 C 99.966 481.158, 102.122 479.947, 111.785 470.220 C 119.185 462.771, 123.090 459.680, 128.174 457.247 C 135.274 453.850, 136.962 451.513, 134.807 448.063 C 132.818 444.878, 128.346 445.479, 121.500 449.850 M 149.679 471.087 C 141.378 473.454, 136.377 475.914, 128.447 481.531 C 119.177 488.099, 119.103 489.188, 128.238 484.604 C 143.413 476.988, 162.981 474.126, 176.296 477.577 C 183.605 479.471, 188.141 481.698, 194.366 486.450 C 198.954 489.952, 199.095 489.987, 202.588 488.527 C 205.866 487.158, 206.035 486.887, 204.750 485.054 C 200.919 479.584, 189.814 472.968, 180.307 470.492 C 172.307 468.408, 158.107 468.684, 149.679 471.087 M 165.008 507.492 C 161.689 511.024, 161.890 515.648, 165.496 518.751 C 168.850 521.635, 173.444 521.266, 176.250 517.886 C 178.708 514.926, 178.429 511.663, 175.411 508.077 C 172.169 504.223, 168.284 504.005, 165.008 507.492 M 230 575.886 C 218.864 578.335, 207.542 582.198, 199.217 586.391 C 192.395 589.827, 187.092 593.521, 188 594.204 C 188.275 594.411, 190.174 595.813, 192.220 597.318 L 195.939 600.056 202.720 596.678 C 223.772 586.189, 250.521 580.011, 274.917 580.004 C 282.296 580.002, 288.114 579.781, 287.847 579.513 C 287.579 579.246, 283.792 578.083, 279.430 576.930 C 267.772 573.847, 241.770 573.298, 230 575.886 M 249 591.859 C 249 592.551, 248.544 592.836, 247.987 592.492 C 245.054 590.679, 223.742 600.053, 216.435 606.369 L 212.681 609.614 216.398 611.807 C 218.442 613.013, 220.345 614, 220.627 614 C 220.909 614, 225.271 611.132, 230.320 607.628 C 235.369 604.123, 242.425 599.755, 246 597.922 C 249.575 596.089, 252.651 594.229, 252.835 593.788 C 253.020 593.348, 253.491 593.186, 253.883 593.428 C 254.275 593.670, 255.249 593.405, 256.048 592.840 C 257.232 592.001, 257.177 591.915, 255.750 592.374 C 254.787 592.684, 254 592.446, 254 591.846 C 254 591.062, 253.628 591.064, 252.676 591.854 C 251.710 592.656, 251.035 592.635, 250.176 591.776 C 249.275 590.875, 249 590.894, 249 591.859 M 269.994 615.934 C 265.044 617.440, 261.324 619.925, 257.006 624.609 C 252.331 629.681, 252.886 631.642, 257.972 628.020 C 262.015 625.141, 276.657 618.399, 281 617.416 L 284.500 616.625 281.500 615.931 C 277.489 615.003, 273.051 615.004, 269.994 615.934 M 389.500 621.385 L 385.500 622.616 393 623.277 C 404.265 624.270, 414.644 627.959, 423.806 634.227 C 427.940 637.056, 428.308 637.126, 433.056 635.987 C 435.775 635.334, 438 634.394, 438 633.898 C 438 631.878, 425.480 623.920, 419.299 622.011 C 411.772 619.686, 396.090 619.357, 389.500 621.385" stroke="none" fill="#451117" fill-rule="evenodd"/></svg>