<svg width="372" height="387" viewBox="0 0 372 387" fill="none" xmlns="http://www.w3.org/2000/svg">
<ellipse cx="186" cy="193.5" rx="186" ry="193.5" fill="#F8F8F7"/>
<path fill-rule="evenodd" clip-rule="evenodd" d="M172.059 0.907165C114.087 5.78316 62.9679 37.582 30.3033 89.0888C12.2431 117.567 1.27602 151.745 0.315648 182.549L0.162598 187.452H12.2788H24.395L24.8758 181.895C28.2569 142.806 45.8688 104.117 73.3566 75.395C86.7495 61.4018 99.5468 51.9982 117.499 42.9607C133.892 34.7077 147.372 30.4834 166.601 27.5738C177.172 25.9742 195.368 25.8742 206.558 27.3541C228.997 30.322 252.237 39.3647 271.714 52.7055C282.642 60.1924 287.869 64.5814 297.059 73.9921C325.165 102.774 342.386 138.731 347.026 178.326C347.576 183.015 348.025 187.066 348.025 187.329C348.025 187.593 353.406 187.728 359.982 187.63L371.939 187.452L371.74 181.569C370.903 156.823 363.569 129.478 351.09 104.572C347.153 96.7163 338.19 82.7838 330.733 72.9279C323.993 64.0199 308.242 47.6942 299.811 40.878C262.792 10.9501 218.272 -2.97977 172.059 0.907165ZM209.517 62.9524C206.687 65.8535 207.23 68.4062 212.53 77.1195C218.249 86.5224 218.812 87.1081 222.135 87.1081C224.391 87.1081 225.12 86.7636 226.551 85.0195C227.898 83.3781 228.193 82.4727 227.926 80.7887C227.528 78.2752 219.741 64.5683 217.496 62.4307C215.197 60.2414 211.955 60.4532 209.517 62.9524ZM274.318 82.6956C268.678 88.5521 268.313 89.096 268.313 91.6448C268.313 95.2382 270.462 97.5674 273.778 97.5674C275.827 97.5674 276.735 96.9477 281.201 92.5012C287.107 86.6204 288.355 84.5541 287.807 81.5621C287.312 78.8577 285.673 77.3502 282.687 76.8534C280.381 76.4697 280.172 76.6161 274.318 82.6956ZM129.902 91.569C124.722 93.0549 120.366 95.4533 115.469 99.5148L111.694 102.647L98.6495 102.943C84.5539 103.265 83.3914 103.539 82.051 106.857C80.2865 111.224 83.5885 121.29 88.2481 125.75C91.0374 128.42 92.0188 129.003 100.905 133.264C118.665 141.779 123.208 155.975 117.098 183.857C115.142 192.781 115.02 194.081 115.015 206.083C115.011 217.757 115.149 219.353 116.657 225.047C119.586 236.106 124.726 245.651 131.611 252.824L134.965 256.317L135.16 265.193C135.284 270.857 135.121 274.07 134.711 274.069C133.272 274.067 125.679 268.354 121.723 264.297C119.4 261.914 116.085 257.844 114.357 255.25C112.629 252.657 111.051 250.542 110.849 250.552C110.648 250.562 109.766 251.772 108.89 253.242C104.846 260.021 94.662 268.711 86.9721 271.945C78.1483 275.657 78.8383 275.589 47.1926 275.859C25.9433 276.041 17.6992 276.317 17.6992 276.846C17.6992 277.25 19.303 280.484 21.2639 284.034C25.0971 290.973 27.2595 293.1 33.6416 296.204C36.6898 297.688 37.9837 297.912 43.5259 297.92C51.1393 297.93 54.4955 296.62 60.9356 291.123C67.296 285.694 69.6185 284.854 78.2803 284.854C86.8356 284.854 88.3622 285.455 95.8169 291.757C102.013 296.995 104.549 297.935 112.397 297.901C119.913 297.868 122.592 296.818 128.357 291.646C132.991 287.489 137.073 285.395 142.161 284.561C149.851 283.302 156.055 285.223 163.094 291.043C168.581 295.58 172.489 297.535 177.045 298.023C180.972 298.444 187.982 297.827 187.939 297.064C187.925 296.82 185.879 295.003 183.391 293.025C166.479 279.58 155.199 260.959 151.342 240.118C150.24 234.161 150.01 219.77 150.95 215.612C152.631 208.184 160.725 204.321 166.691 208.101C170.539 210.538 171.978 214.067 172.708 222.847C173.523 232.66 175.121 239.633 178.27 247.122C186.991 267.857 207.743 286.51 232.284 295.67C237.461 297.602 238.742 297.818 245.356 297.87C254.001 297.939 255.568 297.34 263.211 291.05C269.847 285.59 273.359 284.334 281.067 284.666C288.344 284.98 290.973 286.054 297.329 291.31C304.353 297.12 306.382 297.928 313.942 297.928C320.062 297.928 320.571 297.818 325.182 295.481L330.012 293.034L335.446 295.645C338.434 297.08 341.185 298.255 341.559 298.255C341.933 298.255 343.349 296.564 344.707 294.496C347.816 289.763 354.402 277.705 354.402 276.748C354.402 276.238 347.154 276.028 329.373 276.028L304.343 276.026L301.808 267.693C295.276 246.225 284.346 231.833 267.771 222.875C260.277 218.824 255.47 217.175 239.736 213.252C232.611 211.476 225.084 209.32 223.01 208.461C206.234 201.515 193.321 187.323 187.32 169.236C184.395 160.423 183.508 154.917 182.845 141.481C181.938 123.078 180.404 117.156 174.266 108.337C169.057 100.856 162.013 95.5076 153.066 92.2423C147.701 90.2838 135.607 89.9328 129.902 91.569ZM238.268 101.699C225.211 106.702 221.67 124.025 231.756 133.556C235.843 137.417 239.048 138.719 244.506 138.736C251.92 138.76 257.899 135.171 261.812 128.346C263.295 125.76 263.529 124.634 263.52 120.12C263.511 115.927 263.213 114.307 262.018 111.949C260.093 108.153 256.55 104.353 253.328 102.629C250.11 100.907 241.692 100.387 238.268 101.699ZM131.053 107.213C127.008 109.784 126.461 115.48 129.92 119.025C132.21 121.373 135.07 122.03 137.837 120.845C143.692 118.338 144.407 110.899 139.137 107.338C136.839 105.784 133.384 105.731 131.053 107.213ZM283.952 142.389C281.504 143.697 281.089 144.426 281.077 147.442C281.064 150.782 283.295 153.104 286.619 153.21C295.594 153.497 301.863 153.001 303.387 151.882C306.786 149.385 306.415 144.29 302.691 142.316C300.103 140.943 286.556 140.996 283.952 142.389ZM56.8231 168.882C55.7186 169.21 53.9248 170.517 52.8375 171.787C51.1648 173.74 50.86 174.623 50.8619 177.506C50.8645 181.609 52.4504 184.618 55.4546 186.222C57.2331 187.172 60.1136 187.39 74.25 187.647L90.9449 187.952L91.3671 185.414C91.8798 182.336 94.6034 170.903 95.2034 169.312C95.6084 168.238 94.5103 168.172 77.2325 168.226C67.1117 168.259 57.9269 168.554 56.8231 168.882ZM213.472 168.575C213.472 168.799 214.785 170.869 216.391 173.176C221.971 181.192 229.788 186.006 239.124 187.177C242.513 187.602 257.608 187.783 278.927 187.657C312.337 187.458 313.34 187.415 315.814 186.084C321.095 183.245 322.523 176.489 318.801 171.955C315.585 168.036 317.523 168.168 263.232 168.168C235.864 168.168 213.472 168.351 213.472 168.575ZM0.808583 216.378C2.34734 228.177 6.20157 247.486 7.4878 249.842C7.93483 250.661 12.2374 250.771 37.8836 250.62C56.1491 250.512 68.8736 250.173 70.6279 249.748C75.5522 248.554 81.9426 244.726 85.0348 241.119C90.788 234.407 92.3427 228.781 91.3747 218.187L90.9251 213.273H45.6641H0.403008L0.808583 216.378ZM301.333 218.993C308.987 226.862 312.906 232.427 317.749 242.304L321.887 250.744L343.004 250.744C360.521 250.743 364.204 250.586 364.604 249.822C366.039 247.075 369.928 227.446 371.23 216.378L371.596 213.273H333.682H295.769L301.333 218.993ZM71.5845 310.24C67.8335 311.506 66.4472 312.387 62.6389 315.922C58.6915 319.586 56.4035 320.924 51.5353 322.415L48.0663 323.477L56.1012 331.877C62.2206 338.274 64.4155 340.183 65.3096 339.888C65.9549 339.674 68.2047 338.867 70.3091 338.095C73.4886 336.928 75.1594 336.736 80.1934 336.96C87.222 337.271 89.7205 338.325 95.8169 343.551C97.9213 345.355 100.802 347.36 102.218 348.007C108.158 350.72 117.62 350.708 122.833 347.982C124.158 347.289 126.8 345.442 128.703 343.877C133.635 339.824 135.028 339.014 139.192 337.773C144.16 336.292 152.03 336.707 156.337 338.677C158.056 339.464 161.5 341.69 163.989 343.624C171.324 349.323 171.992 349.571 179.993 349.571C188.018 349.571 189.691 348.938 196.678 343.262C202.447 338.576 205.704 337.281 212.515 336.966C219.865 336.625 223.483 337.942 230.052 343.343C236.182 348.384 240.015 349.898 246.649 349.898C253.261 349.898 256.383 348.643 263.374 343.175C270.304 337.755 273.838 336.552 281.643 336.96C287.757 337.279 291.397 338.773 296.311 342.982C297.815 344.269 299.34 345.322 299.702 345.322C300.899 345.322 311.059 336.033 317.158 329.364C323.006 322.969 324.184 321.244 322.164 322.039C319.259 323.182 312.673 323.732 309.055 323.135C303.901 322.284 300.73 320.618 295.734 316.138C289.682 310.71 287.15 309.69 279.792 309.716C272.308 309.742 269.752 310.803 263.528 316.466C257.689 321.779 253.909 323.289 246.313 323.343C241.137 323.38 240.166 323.182 236.429 321.328C234.149 320.197 230.705 317.781 228.776 315.959C223.295 310.78 220.667 309.706 213.472 309.7C206.013 309.694 203.503 310.738 197.208 316.466C191.361 321.787 187.611 323.27 179.993 323.275C171.978 323.281 169.16 322.013 159.905 314.24C155.432 310.483 151.08 309.105 144.97 309.51C139.261 309.889 135.359 311.646 130.697 315.938C125.979 320.281 122.166 322.234 116.543 323.186C108.13 324.61 101.101 322.336 93.9051 315.861C91.802 313.968 88.7889 311.829 87.2093 311.106C83.6261 309.466 75.255 309.001 71.5845 310.24ZM140.456 362.888C137.504 363.689 135.107 365.158 130.252 369.142C127.797 371.158 124.395 373.34 122.691 373.992L119.594 375.177L129.706 378.245C167.269 389.639 204.133 389.619 239.906 378.185L247.529 375.749L242.89 374.953C237.209 373.978 233.889 372.383 229.449 368.498C223.533 363.321 221.76 362.645 214.109 362.645C206.175 362.645 204.073 363.448 197.253 369.083C194.82 371.092 191.52 373.2 189.919 373.766C183.426 376.062 174.243 375.607 168.713 372.715C167.402 372.029 164.771 370.167 162.865 368.576C157.182 363.83 154.659 362.804 148.108 362.573C144.951 362.461 141.508 362.603 140.456 362.888Z" fill="#5B2D33"/>
</svg>
